<svg width="900" height="200" viewBox="0 0 900 200" fill="none" xmlns="http://www.w3.org/2000/svg">
<rect x="1.5" y="1.5" width="897" height="197" fill="white"/>
<path d="M189.904 110V60.32H214.096C222.16 60.32 226.192 64.352 226.192 72.416V82.064C226.192 90.128 222.16 94.16 214.096 94.16H200.272V110H189.904ZM200.272 84.8H213.664C215.104 84.8 215.824 84.08 215.824 82.64V71.84C215.824 70.4 215.104 69.68 213.664 69.68H200.272V84.8ZM228.327 108.056L243.087 60.32H258.927L273.687 108.056L272.391 110H263.751L260.727 99.92H241.287L238.263 110H229.623L228.327 108.056ZM244.095 90.56H257.919L251.583 69.68H250.431L244.095 90.56ZM273.398 62.264L274.694 60.32H283.766L295.142 100.64H296.294L307.67 60.32H316.742L318.038 62.264L303.926 110H287.51L273.398 62.264ZM325.256 110V60.32H359.24V69.68H335.624V79.76H357.08V89.12H335.624V100.64H359.24V110H325.256ZM368.709 110V60.32H379.077V100.64H400.533V110H368.709ZM423.291 106.256V100.64H445.611C447.051 100.64 447.771 99.92 447.771 98.48V93.224C447.771 91.88 447.171 91.088 445.971 90.848L431.931 88.04C426.171 86.888 423.291 83.024 423.291 76.448V72.416C423.291 64.352 427.323 60.32 435.387 60.32H451.875L456.699 64.064V69.68H435.819C434.379 69.68 433.659 70.4 433.659 71.84V76.52C433.659 77.864 434.259 78.656 435.459 78.896L449.499 81.704C455.259 82.856 458.139 86.72 458.139 93.296V97.904C458.139 105.968 454.107 110 446.043 110H428.115L423.291 106.256ZM467.347 97.904V60.32H477.715V98.48C477.715 99.92 478.435 100.64 479.875 100.64H493.987C495.427 100.64 496.147 99.92 496.147 98.48V60.32H506.515V97.904C506.515 105.968 502.483 110 494.419 110H479.443C471.379 110 467.347 105.968 467.347 97.904ZM515.752 106.256V100.64H538.072C539.512 100.64 540.232 99.92 540.232 98.48V93.224C540.232 91.88 539.632 91.088 538.432 90.848L524.392 88.04C518.632 86.888 515.752 83.024 515.752 76.448V72.416C515.752 64.352 519.784 60.32 527.848 60.32H544.336L549.16 64.064V69.68H528.28C526.84 69.68 526.12 70.4 526.12 71.84V76.52C526.12 77.864 526.72 78.656 527.92 78.896L541.96 81.704C547.72 82.856 550.6 86.72 550.6 93.296V97.904C550.6 105.968 546.568 110 538.504 110H520.576L515.752 106.256ZM560.24 110V60.32H570.608V110H560.24ZM581.668 97.904V72.416C581.668 64.352 585.7 60.32 593.764 60.32H612.988L617.812 64.064V69.68H594.196C592.756 69.68 592.036 70.4 592.036 71.84V98.48C592.036 99.92 592.756 100.64 594.196 100.64H617.812V106.256L612.988 110H593.764C585.7 110 581.668 105.968 581.668 97.904ZM627.318 110V60.32H637.686V79.976L655.254 60.32H664.974L665.982 62.408L649.494 80.768L667.782 107.912L666.774 110H657.27L642.798 88.256L637.686 93.8V110H627.318ZM671.085 62.264L672.309 60.32H681.165L691.965 81.416L702.765 60.32H711.621L712.845 62.264L697.149 92.432V110H686.781V92.432L671.085 62.264Z" fill="black"/>
<path d="M191.717 150.036V137.469C191.717 133.493 193.705 131.505 197.681 131.505H207.159L209.538 133.351V136.12H197.894C197.184 136.12 196.829 136.475 196.829 137.185V150.32C196.829 151.03 197.184 151.385 197.894 151.385H209.538V154.154L207.159 156H197.681C193.705 156 191.717 154.012 191.717 150.036ZM212.805 156V152.024L224.591 136.12H213.16V131.505H231.052V135.481L219.266 151.385H231.407V156H212.805ZM235.823 156V131.505H252.579V136.12H240.935V141.09H251.514V145.705H240.935V151.385H252.579V156H235.823ZM256.893 150.036V137.469C256.893 133.493 258.881 131.505 262.857 131.505H272.335L274.714 133.351V136.12H263.07C262.36 136.12 262.005 136.475 262.005 137.185V150.32C262.005 151.03 262.36 151.385 263.07 151.385H274.714V154.154L272.335 156H262.857C258.881 156 256.893 154.012 256.893 150.036ZM279.401 156V131.505H284.513V141.09H293.601V131.505H298.713V156H293.601V145.705H284.513V156H279.401ZM313.063 156V131.505H329.819V136.12H318.175V142.155H328.754V146.77H318.175V156H313.063ZM333.795 156V131.505H345.723C349.699 131.505 351.687 133.493 351.687 137.469V141.516C351.687 144.474 350.586 146.332 348.385 147.089L352.397 154.935L351.793 156H347.391L343.06 147.48H338.907V156H333.795ZM338.907 142.865H345.51C346.22 142.865 346.575 142.51 346.575 141.8V137.185C346.575 136.475 346.22 136.12 345.51 136.12H338.907V142.865ZM356.459 150.036V137.469C356.459 133.493 358.447 131.505 362.423 131.505H370.517C374.493 131.505 376.481 133.493 376.481 137.469V150.036C376.481 154.012 374.493 156 370.517 156H362.423C358.447 156 356.459 154.012 356.459 150.036ZM361.571 150.32C361.571 151.03 361.926 151.385 362.636 151.385H370.304C371.014 151.385 371.369 151.03 371.369 150.32V137.185C371.369 136.475 371.014 136.12 370.304 136.12H362.636C361.926 136.12 361.571 136.475 361.571 137.185V150.32ZM381.948 156V131.505H387.486L397.213 147.586V131.505H402.325V156H396.787L387.06 139.918V156H381.948ZM406.098 136.12V131.505H426.12V136.12H418.665V156H413.553V136.12H406.098ZM429.894 156V131.505H446.65V136.12H435.006V141.09H445.585V145.705H435.006V151.385H446.65V156H429.894ZM451.319 156V131.505H456.857L466.584 147.586V131.505H471.696V156H466.158L456.431 139.918V156H451.319ZM477.528 156V131.505H486.829C493.503 131.505 496.84 134.842 496.84 141.516V145.989C496.84 152.663 493.503 156 486.829 156H477.528ZM482.64 151.385H487.113C490.19 151.385 491.728 149.847 491.728 146.77V140.735C491.728 137.658 490.19 136.12 487.113 136.12H482.64V151.385ZM510.497 156V131.505H519.798C526.472 131.505 529.809 134.842 529.809 141.516V145.989C529.809 152.663 526.472 156 519.798 156H510.497ZM515.609 151.385H520.082C523.159 151.385 524.697 149.847 524.697 146.77V140.735C524.697 137.658 523.159 136.12 520.082 136.12H515.609V151.385ZM534.938 156V131.505H551.694V136.12H540.05V141.09H550.629V145.705H540.05V151.385H551.694V156H534.938ZM554.091 132.463L554.73 131.505H559.203L564.812 151.385H565.38L570.989 131.505H575.462L576.101 132.463L569.143 156H561.049L554.091 132.463ZM579.66 156V131.505H596.416V136.12H584.772V141.09H595.351V145.705H584.772V151.385H596.416V156H579.66ZM601.085 156V131.505H606.197V151.385H616.776V156H601.085ZM620.178 150.036V137.469C620.178 133.493 622.166 131.505 626.142 131.505H634.236C638.212 131.505 640.2 133.493 640.2 137.469V150.036C640.2 154.012 638.212 156 634.236 156H626.142C622.166 156 620.178 154.012 620.178 150.036ZM625.29 150.32C625.29 151.03 625.645 151.385 626.355 151.385H634.023C634.733 151.385 635.088 151.03 635.088 150.32V137.185C635.088 136.475 634.733 136.12 634.023 136.12H626.355C625.645 136.12 625.29 136.475 625.29 137.185V150.32ZM645.668 156V131.505H657.596C661.572 131.505 663.56 133.493 663.56 137.469V142.226C663.56 146.202 661.572 148.19 657.596 148.19H650.78V156H645.668ZM650.78 143.575H657.383C658.093 143.575 658.448 143.22 658.448 142.51V137.185C658.448 136.475 658.093 136.12 657.383 136.12H650.78V143.575ZM668.306 156V131.505H685.062V136.12H673.418V141.09H683.997V145.705H673.418V151.385H685.062V156H668.306ZM689.731 156V131.505H701.659C705.635 131.505 707.623 133.493 707.623 137.469V141.516C707.623 144.474 706.522 146.332 704.321 147.089L708.333 154.935L707.729 156H703.327L698.996 147.48H694.843V156H689.731ZM694.843 142.865H701.446C702.156 142.865 702.511 142.51 702.511 141.8V137.185C702.511 136.475 702.156 136.12 701.446 136.12H694.843V142.865Z" fill="black"/>
<rect x="1.5" y="1.5" width="897" height="197" stroke="black" stroke-width="3"/>
</svg>
